HIERARCHY
ROOT hip
{
  OFFSET 2.61985 89.1892 -2.82841
  CHANNELS 6 Xposition Yposition Zposition Zrotation Xrotation Yrotation
  JOINT abdomen
  {
    OFFSET 0 7.2397 0
    CHANNELS 6 Xposition Yposition Zposition Zrotation Xrotation Yrotation
    JOINT chest
    {
      OFFSET 0 16.546 0
      CHANNELS 6 Xposition Yposition Zposition Zrotation Xrotation Yrotation
      JOINT neck
      {
        OFFSET 0 34.2149 0
        CHANNELS 6 Xposition Yposition Zposition Zrotation Xrotation Yrotation
        JOINT head
        {
          OFFSET 0 6.2923 0
          CHANNELS 6 Xposition Yposition Zposition Zrotation Xrotation Yrotation
          End Site
          {
            OFFSET 0 21.2161 0
          }
        }
      }
      JOINT lCollar
      {
        OFFSET 4.0639 26.6115 -1.1234
        CHANNELS 6 Xposition Yposition Zposition Zrotation Xrotation Yrotation
        JOINT lShldr
        {
          OFFSET 14.1772 0 0
          CHANNELS 6 Xposition Yposition Zposition Zrotation Xrotation Yrotation
          JOINT lForeArm
          {
            OFFSET 26.1234 0 0
            CHANNELS 6 Xposition Yposition Zposition Zrotation Xrotation Yrotation
            JOINT lHand
            {
              OFFSET 27.7188 0 0
              CHANNELS 6 Xposition Yposition Zposition Zrotation Xrotation Yrotation
              JOINT lThumb1
              {
                OFFSET 2.2979 -0.4685 1.8313
                CHANNELS 6 Xposition Yposition Zposition Zrotation Xrotation Yrotation
                JOINT lThumb2
                {
                  OFFSET 5.2953 0 0
                  CHANNELS 6 Xposition Yposition Zposition Zrotation Xrotation Yrotation
                  JOINT lThumb3
                  {
                    OFFSET 3.0181 0 0
                    CHANNELS 6 Xposition Yposition Zposition Zrotation Xrotation Yrotation
                    End Site
                    {
                      OFFSET 2.6294 0 0
                    }
                  }
                }
              }
              JOINT lIndex1
              {
                OFFSET 9.3793 0.2991 2.5924
                CHANNELS 6 Xposition Yposition Zposition Zrotation Xrotation Yrotation
                JOINT lIndex2
                {
                  OFFSET 4.3461 0 0
                  CHANNELS 6 Xposition Yposition Zposition Zrotation Xrotation Yrotation
                  JOINT lIndex3
                  {
                    OFFSET 2.1666 0 0
                    CHANNELS 6 Xposition Yposition Zposition Zrotation Xrotation Yrotation
                    End Site
                    {
                      OFFSET 2.2048 0 0
                    }
                  }
                }
              }
              JOINT lMid1
              {
                OFFSET 9.4769 0.8376 0.2947
                CHANNELS 6 Xposition Yposition Zposition Zrotation Xrotation Yrotation
                JOINT lMid2
                {
                  OFFSET 4.772 0 0
                  CHANNELS 6 Xposition Yposition Zposition Zrotation Xrotation Yrotation
                  JOINT lMid3
                  {
                    OFFSET 2.8722 0 0
                    CHANNELS 6 Xposition Yposition Zposition Zrotation Xrotation Yrotation
                    End Site
                    {
                      OFFSET 2.0959 0 0
                    }
                  }
                }
              }
              JOINT lRing1
              {
                OFFSET 8.6586 1.0176 -1.7016
                CHANNELS 6 Xposition Yposition Zposition Zrotation Xrotation Yrotation
                JOINT lRing2
                {
                  OFFSET 4.5461 0 0
                  CHANNELS 6 Xposition Yposition Zposition Zrotation Xrotation Yrotation
                  JOINT lRing3
                  {
                    OFFSET 2.506 0 0
                    CHANNELS 6 Xposition Yposition Zposition Zrotation Xrotation Yrotation
                    End Site
                    {
                      OFFSET 2.2023 0 0
                    }
                  }
                }
              }
              JOINT lPinky1
              {
                OFFSET 7.6901 0.6618 -3.9096
                CHANNELS 6 Xposition Yposition Zposition Zrotation Xrotation Yrotation
                JOINT lPinky2
                {
                  OFFSET 3.2119 0 0
                  CHANNELS 6 Xposition Yposition Zposition Zrotation Xrotation Yrotation
                  JOINT lPinky3
                  {
                    OFFSET 1.924 0 0
                    CHANNELS 6 Xposition Yposition Zposition Zrotation Xrotation Yrotation
                    End Site
                    {
                      OFFSET 1.7829 0 0
                    }
                  }
                }
              }
            }
          }
        }
      }
      JOINT rCollar
      {
        OFFSET -4.0677 26.6109 -1.1234
        CHANNELS 6 Xposition Yposition Zposition Zrotation Xrotation Yrotation
        JOINT rShldr
        {
          OFFSET -14.1772 0 0
          CHANNELS 6 Xposition Yposition Zposition Zrotation Xrotation Yrotation
          JOINT rForeArm
          {
            OFFSET -26.1234 0 0
            CHANNELS 6 Xposition Yposition Zposition Zrotation Xrotation Yrotation
            JOINT rHand
            {
              OFFSET -27.7188 0 0
              CHANNELS 6 Xposition Yposition Zposition Zrotation Xrotation Yrotation
              JOINT rThumb1
              {
                OFFSET -2.2979 -0.4684 1.8313
                CHANNELS 6 Xposition Yposition Zposition Zrotation Xrotation Yrotation
                JOINT rThumb2
                {
                  OFFSET -5.2953 0 0
                  CHANNELS 6 Xposition Yposition Zposition Zrotation Xrotation Yrotation
                  JOINT rThumb3
                  {
                    OFFSET -3.0181 0 0
                    CHANNELS 6 Xposition Yposition Zposition Zrotation Xrotation Yrotation
                    End Site
                    {
                      OFFSET -2.6294 0 0
                    }
                  }
                }
              }
              JOINT rIndex1
              {
                OFFSET -9.3793 0.2991 2.5924
                CHANNELS 6 Xposition Yposition Zposition Zrotation Xrotation Yrotation
                JOINT rIndex2
                {
                  OFFSET -4.3461 0 0
                  CHANNELS 6 Xposition Yposition Zposition Zrotation Xrotation Yrotation
                  JOINT rIndex3
                  {
                    OFFSET -2.1666 0 0
                    CHANNELS 6 Xposition Yposition Zposition Zrotation Xrotation Yrotation
                    End Site
                    {
                      OFFSET -2.2048 0 0
                    }
                  }
                }
              }
              JOINT rMid1
              {
                OFFSET -9.4769 0.8376 0.2947
                CHANNELS 6 Xposition Yposition Zposition Zrotation Xrotation Yrotation
                JOINT rMid2
                {
                  OFFSET -4.772 0 0
                  CHANNELS 6 Xposition Yposition Zposition Zrotation Xrotation Yrotation
                  JOINT rMid3
                  {
                    OFFSET -2.8722 0 0
                    CHANNELS 6 Xposition Yposition Zposition Zrotation Xrotation Yrotation
                    End Site
                    {
                      OFFSET -2.0959 0 0
                    }
                  }
                }
              }
              JOINT rRing1
              {
                OFFSET -8.6586 1.0176 -1.7016
                CHANNELS 6 Xposition Yposition Zposition Zrotation Xrotation Yrotation
                JOINT rRing2
                {
                  OFFSET -4.5461 0 0
                  CHANNELS 6 Xposition Yposition Zposition Zrotation Xrotation Yrotation
                  JOINT rRing3
                  {
                    OFFSET -2.506 0 0
                    CHANNELS 6 Xposition Yposition Zposition Zrotation Xrotation Yrotation
                    End Site
                    {
                      OFFSET -2.2023 0 0
                    }
                  }
                }
              }
              JOINT rPinky1
              {
                OFFSET -7.6901 0.6618 -3.9096
                CHANNELS 6 Xposition Yposition Zposition Zrotation Xrotation Yrotation
                JOINT rPinky2
                {
                  OFFSET -3.2119 0 0
                  CHANNELS 6 Xposition Yposition Zposition Zrotation Xrotation Yrotation
                  JOINT rPinky3
                  {
                    OFFSET -1.924 0 0
                    CHANNELS 6 Xposition Yposition Zposition Zrotation Xrotation Yrotation
                    End Site
                    {
                      OFFSET -1.7829 0 0
                    }
                  }
                }
              }
            }
          }
        }
      }
    }
  }
  JOINT lThigh
  {
    OFFSET 8.7379 -0.0029 0.0005
    CHANNELS 6 Xposition Yposition Zposition Zrotation Xrotation Yrotation
    JOINT lShin
    {
      OFFSET 0 -46.6676 0
      CHANNELS 6 Xposition Yposition Zposition Zrotation Xrotation Yrotation
      JOINT lFoot
      {
        OFFSET 0 -40.1476 0
        CHANNELS 6 Xposition Yposition Zposition Zrotation Xrotation Yrotation
        JOINT lToes
        {
          OFFSET 0 -8.8846 14.2294
          CHANNELS 6 Xposition Yposition Zposition Zrotation Xrotation Yrotation
          End Site
          {
            OFFSET 0 0 6.296
          }
        }
      }
    }
  }
  JOINT rThigh
  {
    OFFSET -8.7379 0.0029 -0.0005
    CHANNELS 6 Xposition Yposition Zposition Zrotation Xrotation Yrotation
    JOINT rShin
    {
      OFFSET 0 -46.6676 0
      CHANNELS 6 Xposition Yposition Zposition Zrotation Xrotation Yrotation
      JOINT rFoot
      {
        OFFSET 0 -40.1476 0
        CHANNELS 6 Xposition Yposition Zposition Zrotation Xrotation Yrotation
        JOINT rToes
        {
          OFFSET 0 -8.8846 14.2294
          CHANNELS 6 Xposition Yposition Zposition Zrotation Xrotation Yrotation
          End Site
          {
            OFFSET 0 0 6.296
          }
        }
      }
    }
  }
}
MOTION
Frames:	4
Frame Time:	0.0333333
-3.53774 86.6113 0.448138 2.07979 -3.96277 58.0381 -1.77636e-15 7.2397 -4.44089e-16 1.20428 -0.900574 -1.27022 -4.44089e-16 16.546 -8.88178e-16 2.15391 0.0335008 -2.65778 1.22125e-15 34.2149 1.77636e-15 11.0529 36.7619 -11.6573 0 6.2923 0 1.72135 -23.1892 -35.9863 4.0639 26.6115 -1.1234 -2.18818 -4.29069 4.56177 14.1772 0 -3.55271e-15 -57.248 49.4955 6.53174 26.1234 0 0 -0.699442 0.358764 -54.3098 27.7188 7.10543e-15 3.55271e-15 -31.7231 5.23426 -3.9277 2.2979 -0.4685 1.8313 -18.6472 62.4613 -22.1993 5.2953 1.06581e-14 7.10543e-15 -78.4484 -17.8615 23.6396 3.0181 1.42109e-14 3.55271e-15 -26.0205 -3.27832 12.7531 9.3793 0.2991 2.5924 -86.7234 -11.6336 11.7376 4.3461 0 0 -101.313 -15.3687 12.8432 2.1666 0 7.10543e-15 -52.8682 -5.06579 9.70679 9.4769 0.8376 0.2947 -86.1207 -14.3678 11.8693 4.772 -1.42109e-14 -1.77636e-15 -99.7084 -18.7732 15.9476 2.8722 1.77636e-15 0 -46.0735 -4.79904 13.0041 8.6586 1.0176 -1.7016 -87.5253 -7.80638 11.6022 4.5461 0 3.55271e-15 -102.907 -10.9792 8.75753 2.506 -1.77636e-15 0 -44.7424 -2.53775 7.36489 7.6901 0.6618 -3.9096 -83.6698 -18.5361 16.4544 3.2119 0 -1.77636e-15 -97.5288 -20.0782 21.9503 1.924 0 7.10543e-15 -44.1134 -5.97674 16.4565 -4.0677 26.6109 -1.1234 -2.44008 -4.95198 -13.828 -14.1772 0 0 8.73862 -50.6965 -19.9577 -26.1234 0 0 0.685536 1.3821 127.238 -27.7188 0 0 28.4502 -71.6546 15.9125 -2.2979 -0.4684 1.8313 -6.82629 85.111 59.48 -5.2953 -1.42109e-14 0 77.43 -43.5181 -15.7894 -3.0181 1.42109e-14 -1.42109e-14 21.0874 -14.4824 -19.0303 -9.3793 0.2991 2.5924 99.0589 -14.2344 -11.8431 -4.3461 0 -2.84217e-14 91.1127 -13.1587 -13.1719 -2.1666 0 7.10543e-15 47.8539 -4.223 -9.03701 -9.4769 0.8376 0.2947 98.4591 -16.9706 -12.0045 -4.772 0 0 89.6004 -16.0621 -16.2604 -2.8722 -2.84217e-14 7.10543e-15 41.1398 -3.85984 -12.0494 -8.6586 1.0176 -1.7016 99.8738 -10.4084 -11.6691 -4.5461 0 -1.42109e-14 92.6083 -9.46618 -9.04647 -2.506 0 -7.10543e-15 39.6377 -2.01539 -6.82333 -7.6901 0.6618 -3.9096 97.4276 -21.4863 -12.3445 -3.2119 1.42109e-14 1.42109e-14 86.4696 -20.3634 -21.6288 -1.924 0 0 39.3557 -4.79855 -15.1654 8.7379 -0.0029 0.0005 31.7695 -11.5469 31.3959 0 -46.6676 1.42109e-14 7.78083 45.1717 -9.3443 7.10543e-15 -40.1476 0 -21.4594 -17.4224 3.67076 -7.10543e-15 -8.8846 14.2294 0.0001 -1.2424e-17 -0 -8.7379 0.0029 -0.0005 -25.1025 -7.76968 -32.4464 0 -46.6676 0 -7.53393 42.801 11.3168 0 -40.1476 -1.77636e-15 21.6543 -18.06 -10.2334 0 -8.8846 14.2294 -3.31043e-32 -3.97569e-16 -4.77083e-15 
-2.05357 86.7007 -0.82332 2.88331 -5.58161 53.8869 -8.88178e-16 7.2397 8.88178e-16 0.650467 -0.954101 -1.40486 4.44089e-16 16.546 -1.77636e-15 0.94832 -0.0585432 -2.78771 4.44089e-16 34.2149 -1.77636e-15 10.6924 36.7094 -10.8529 1.77636e-15 6.2923 0 1.62624 -22.9098 -32.6381 4.0639 26.6115 -1.1234 -2.22612 -4.28227 4.38187 14.1772 -2.84217e-14 -7.10543e-15 -55.6618 47.091 6.78505 26.1234 0 0 -0.689972 0.34584 -53.2421 27.7188 1.42109e-14 0 -38.8116 8.39642 -1.15858 2.2979 -0.4685 1.8313 -18.6472 62.4613 -22.1993 5.2953 0 0 -78.4484 -17.8615 23.6396 3.0181 0 0 -26.0205 -3.27832 12.7531 9.3793 0.2991 2.5924 -86.7234 -11.6336 11.7376 4.3461 1.42109e-14 1.77636e-15 -101.313 -15.3687 12.8432 2.1666 1.77636e-15 3.55271e-15 -52.8682 -5.06579 9.70679 9.4769 0.8376 0.2947 -86.1207 -14.3678 11.8693 4.772 0 -5.32907e-15 -99.7084 -18.7732 15.9476 2.8722 1.77636e-15 -7.10543e-15 -46.0735 -4.79904 13.0041 8.6586 1.0176 -1.7016 -87.5253 -7.80638 11.6022 4.5461 0 -1.77636e-15 -102.907 -10.9792 8.75753 2.506 3.55271e-15 0 -44.7424 -2.53775 7.36489 7.6901 0.6618 -3.9096 -83.6698 -18.5361 16.4544 3.2119 -1.42109e-14 -7.10543e-15 -97.5288 -20.0782 21.9503 1.924 0 -1.06581e-14 -44.1134 -5.97674 16.4565 -4.0677 26.6109 -1.1234 -1.95468 -4.95351 -13.1829 -14.1772 0 0 7.08226 -56.2765 -20.2084 -26.1234 0 -1.42109e-14 0.664686 1.40844 129.474 -27.7188 0 7.10543e-15 29.973 -71.61 17.4394 -2.2979 -0.4684 1.8313 -6.82629 85.111 59.48 -5.2953 -1.42109e-14 0 77.43 -43.5181 -15.7894 -3.0181 0 1.42109e-14 21.0874 -14.4824 -19.0303 -9.3793 0.2991 2.5924 99.0589 -14.2344 -11.8431 -4.3461 0 7.10543e-15 91.1127 -13.1587 -13.1719 -2.1666 0 -3.55271e-15 47.8539 -4.223 -9.03701 -9.4769 0.8376 0.2947 98.4591 -16.9706 -12.0045 -4.772 -2.84217e-14 -7.10543e-15 89.6004 -16.0621 -16.2604 -2.8722 0 0 41.1398 -3.85984 -12.0494 -8.6586 1.0176 -1.7016 99.8738 -10.4084 -11.6691 -4.5461 1.42109e-14 0 92.6083 -9.46618 -9.04647 -2.506 -2.84217e-14 3.55271e-15 39.6377 -2.01539 -6.82333 -7.6901 0.6618 -3.9096 97.4276 -21.4863 -12.3445 -3.2119 0 1.42109e-14 86.4696 -20.3634 -21.6288 -1.924 0 1.77636e-15 39.3557 -4.79855 -15.1654 8.7379 -0.0029 0.0005 31.1131 -8.13017 31.2632 7.10543e-15 -46.6676 -7.10543e-15 7.93652 46.7957 -6.36304 1.42109e-14 -40.1476 0 -21.2766 -20.4658 3.0258 7.10543e-15 -8.8846 14.2294 0.0001 9.93923e-17 7.95139e-16 -8.7379 0.0029 -0.0005 -25.396 -6.65102 -31.2274 0 -46.6676 -7.10543e-15 -6.77526 39.9364 11.6951 -7.10543e-15 -40.1476 -3.55271e-15 21.8144 -14.8714 -8.23666 0 -8.8846 14.2294 0 0 -1.59028e-15 
-0.61336 86.4229 -2.10666 3.56446 -8.02789 50.9374 8.88178e-16 7.2397 0 0.262719 -1.04192 -1.62277 4.44089e-16 16.546 0 0.0130368 -0.222515 -3.08852 8.88178e-16 34.2149 1.77636e-15 10.8606 37.1255 -10.4293 0 6.2923 2.84217e-14 1.39019 -21.5658 -29.8477 4.0639 26.6115 -1.1234 -2.52131 -4.20828 3.61692 14.1772 2.84217e-14 0 -54.8573 43.1762 6.38624 26.1234 0 0 -0.670588 0.320831 -51.1346 27.7188 1.42109e-14 0 -44.245 12.9854 2.8357 2.2979 -0.4685 1.8313 -18.6472 62.4613 -22.1993 5.2953 1.77636e-15 0 -78.4484 -17.8615 23.6396 3.0181 0 7.10543e-15 -26.0205 -3.27832 12.7531 9.3793 0.2991 2.5924 -86.7234 -11.6336 11.7376 4.3461 0 0 -101.313 -15.3687 12.8432 2.1666 1.77636e-15 3.55271e-15 -52.8682 -5.06579 9.70679 9.4769 0.8376 0.2947 -86.1207 -14.3678 11.8693 4.772 0 0 -99.7084 -18.7732 15.9476 2.8722 3.55271e-15 -3.55271e-15 -46.0735 -4.79904 13.0041 8.6586 1.0176 -1.7016 -87.5253 -7.80638 11.6022 4.5461 0 -1.77636e-15 -102.907 -10.9792 8.75753 2.506 -1.77636e-15 -3.55271e-15 -44.7424 -2.53775 7.36489 7.6901 0.6618 -3.9096 -83.6698 -18.5361 16.4544 3.2119 0 0 -97.5288 -20.0782 21.9503 1.924 3.55271e-15 7.10543e-15 -44.1134 -5.97674 16.4565 -4.0677 26.6109 -1.1234 -1.82975 -4.83747 -11.908 -14.1772 -2.84217e-14 -3.55271e-15 5.45325 -61.6273 -20.4454 -26.1234 7.10543e-15 0 0.663585 1.40981 129.593 -27.7188 0 0 31.1467 -71.5336 18.617 -2.2979 -0.4684 1.8313 -6.82629 85.111 59.48 -5.2953 -7.10543e-15 2.84217e-14 77.43 -43.5181 -15.7894 -3.0181 2.84217e-14 1.42109e-14 21.0874 -14.4824 -19.0303 -9.3793 0.2991 2.5924 99.0589 -14.2344 -11.8431 -4.3461 0 0 91.1127 -13.1587 -13.1719 -2.1666 -2.84217e-14 1.77636e-15 47.8539 -4.223 -9.03701 -9.4769 0.8376 0.2947 98.4591 -16.9706 -12.0045 -4.772 0 1.42109e-14 89.6004 -16.0621 -16.2604 -2.8722 2.84217e-14 -1.77636e-15 41.1398 -3.85984 -12.0494 -8.6586 1.0176 -1.7016 99.8738 -10.4084 -11.6691 -4.5461 0 0 92.6083 -9.46618 -9.04647 -2.506 -2.84217e-14 3.55271e-15 39.6377 -2.01539 -6.82333 -7.6901 0.6618 -3.9096 97.4276 -21.4863 -12.3445 -3.2119 0 7.10543e-15 86.4696 -20.3634 -21.6288 -1.924 -2.84217e-14 0 39.3557 -4.79855 -15.1654 8.7379 -0.0029 0.0005 31.6765 -5.45313 31.7123 0 -46.6676 0 8.70903 49.649 -5.67112 0 -40.1476 -1.77636e-15 -20.6295 -23.7475 2.48122 -7.10543e-15 -8.8846 14.2294 0.0001 1.98785e-16 -7.95139e-16 -8.7379 0.0029 -0.0005 -25.0791 -4.9789 -29.7372 0 -46.6676 0 -6.1276 37.5853 11.2274 -7.10543e-15 -40.1476 1.77636e-15 22.5139 -11.9662 -6.07943 0 -8.8846 14.2294 4.96962e-17 1.98785e-16 -0 
0.52266 86.1197 -3.4798 3.27097 -8.87665 49.4159 0 7.2397 1.77636e-15 -0.0463569 -1.27176 -1.93906 -2.22045e-15 16.546 0 -0.775017 -0.67007 -3.62218 0 34.2149 -1.77636e-15 11.3274 37.5354 -10.363 0 6.2923 0 0.882356 -20.4524 -28.2321 4.0639 26.6115 -1.1234 -2.94828 -4.08326 2.47257 14.1772 5.68434e-14 7.10543e-15 -54.5274 38.7389 5.22857 26.1234 1.42109e-14 7.10543e-15 -0.644199 0.289664 -48.4199 27.7188 1.42109e-14 7.10543e-15 -47.6557 17.6635 7.01661 2.2979 -0.4685 1.8313 -18.6472 62.4613 -22.1993 5.2953 -1.77636e-15 1.42109e-14 -78.4484 -17.8615 23.6396 3.0181 -1.42109e-14 -3.55271e-15 -26.0205 -3.27832 12.7531 9.3793 0.2991 2.5924 -86.7234 -11.6336 11.7376 4.3461 -1.42109e-14 -3.55271e-15 -101.313 -15.3687 12.8432 2.1666 0 -5.32907e-15 -52.8682 -5.06579 9.70679 9.4769 0.8376 0.2947 -86.1207 -14.3678 11.8693 4.772 0 3.55271e-15 -99.7084 -18.7732 15.9476 2.8722 0 -3.55271e-15 -46.0735 -4.79904 13.0041 8.6586 1.0176 -1.7016 -87.5253 -7.80638 11.6022 4.5461 0 -1.77636e-15 -102.907 -10.9792 8.75753 2.506 -1.77636e-15 0 -44.7424 -2.53775 7.36489 7.6901 0.6618 -3.9096 -83.6698 -18.5361 16.4544 3.2119 0 -3.55271e-15 -97.5288 -20.0782 21.9503 1.924 0 8.88178e-16 -44.1134 -5.97674 16.4565 -4.0677 26.6109 -1.1234 -1.85899 -4.71868 -10.8849 -14.1772 0 0 0.690476 -66.361 -24.3798 -26.1234 -3.55271e-15 0 0.652446 1.42298 130.739 -27.7188 -7.10543e-15 0 31.5219 -71.5539 18.9833 -2.2979 -0.4684 1.8313 -6.82629 85.111 59.48 -5.2953 1.42109e-14 0 77.43 -43.5181 -15.7894 -3.0181 -1.42109e-14 0 21.0874 -14.4824 -19.0303 -9.3793 0.2991 2.5924 99.0589 -14.2344 -11.8431 -4.3461 1.42109e-14 0 91.1127 -13.1587 -13.1719 -2.1666 0 0 47.8539 -4.223 -9.03701 -9.4769 0.8376 0.2947 98.4591 -16.9706 -12.0045 -4.772 -1.42109e-14 7.10543e-15 89.6004 -16.0621 -16.2604 -2.8722 0 0 41.1398 -3.85984 -12.0494 -8.6586 1.0176 -1.7016 99.8738 -10.4084 -11.6691 -4.5461 -1.42109e-14 3.55271e-15 92.6083 -9.46618 -9.04647 -2.506 2.84217e-14 1.77636e-15 39.6377 -2.01539 -6.82333 -7.6901 0.6618 -3.9096 97.4276 -21.4863 -12.3445 -3.2119 0 0 86.4696 -20.3634 -21.6288 -1.924 2.84217e-14 7.10543e-15 39.3557 -4.79855 -15.1654 8.7379 -0.0029 0.0005 31.6148 -5.16714 32.0766 -7.10543e-15 -46.6676 -7.10543e-15 9.50034 52.0063 -5.80587 0 -40.1476 1.77636e-15 -20.4532 -26.355 2.04893 7.10543e-15 -8.8846 14.2294 0.0001 -1.49089e-16 7.95139e-16 -8.7379 0.0029 -0.0005 -25.2983 -4.56142 -29.2733 0 -46.6676 -7.10543e-15 -5.63853 35.5393 10.9435 -7.10543e-15 -40.1476 -1.77636e-15 23.2293 -9.71757 -5.21913 0 -8.8846 14.2294 -4.96962e-17 -5.96354e-16 -0 
